PathFileType	4	(X/Y/Z)	Run_500 02
DataRate	CameraRate	NumFrames	NumMarkers	Units	OrigDataRate	OrigDataStartFrame	OrigNumFrames
100	100	4	42	mm	100	66	128
Frame#	Time	LASI			RASI			LPSI			RPSI			RTH1			RTH2			RTH3			LTH1			LTH2			LTH3			RTB1			RTB2			RTB3			LTB1			LTB2			LTB3			RCAL			RTOE			RMT5			LCAL			LTOE			LMT5			LACR			RACR			CLAV			C7			RUA1			RUA2			RUA3			RLEL			RMEL			LUA1			LUA2			LUA3			LLEL			LMEL			RFAsuperior			RFAradius			RFAulna			LFAsuperior			LFAradius			LFAulna			
		X1	Y1	Z1	X2	Y2	Z2	X3	Y3	Z3	X4	Y4	Z4	X5	Y5	Z5	X6	Y6	Z6	X7	Y7	Z7	X8	Y8	Z8	X9	Y9	Z9	X10	Y10	Z10	X11	Y11	Z11	X12	Y12	Z12	X13	Y13	Z13	X14	Y14	Z14	X15	Y15	Z15	X16	Y16	Z16	X17	Y17	Z17	X18	Y18	Z18	X19	Y19	Z19	X20	Y20	Z20	X21	Y21	Z21	X22	Y22	Z22	X23	Y23	Z23	X24	Y24	Z24	X25	Y25	Z25	X26	Y26	Z26	X27	Y27	Z27	X28	Y28	Z28	X29	Y29	Z29	X30	Y30	Z30	X31	Y31	Z31	X32	Y32	Z32	X33	Y33	Z33	X34	Y34	Z34	X35	Y35	Z35	X36	Y36	Z36	X37	Y37	Z37	X38	Y38	Z38	X39	Y39	Z39	X40	Y40	Z40	X41	Y41	Z41	X42	Y42	Z42	

64	0.76	759.20557	966.680648	-436.964948	743.66291	985.224156	-167.761006	584.173808	991.7654690000001	-371.050638	574.8836209999999	994.170226	-269.946704	694.013655	802.538486	-128.288988	797.3540839999999	714.984498	-137.917598	775.212656	587.009514	-180.139311	680.738849	764.838903	-475.902153	738.345972	636.514824	-461.66465	686.512221	525.203253	-441.678865	859.56548	368.706008	-257.586798	821.937232	316.9126	-196.390104	797.451552	209.130959	-260.32031	571.814481	403.12504	-376.640564	495.68461	447.692628	-439.680349	420.161975	431.830628	-372.813671	649.232122	103.280815	-270.228326	873.123295	66.719105	-281.291449	818.632296	56.594197	-193.360422	336.571399	560.190345	-361.705064	207.698975	369.951542	-358.870917	209.939396	432.709307	-442.706482	791.186646	1430.140136	-466.600025	752.095902	1454.561609	-132.143314	815.782931	1380.952129	-262.033648	705.997451	1476.107103	-305.337676	680.919948	1392.663398	-52.813192	602.039461	1336.008765	-83.856855	611.224296	1289.195085	-25.051884	543.487241	1207.143112	5.517608	545.1280400000001	1185.237721	-74.614565	750.331407	1349.13857	-553.5311830000001	681.027801	1277.969024	-543.839173	701.1304720000001	1220.692283	-602.247841	699.758167	1138.262769	-633.651212	650.2662350000001	1128.625603	-569.821381	627.392587	1141.101497	32.458103	753.719233	1048.913582	23.221314	700.1436169999999	1000.972218	34.00066	790.555529	1087.486543	-593.008519	887.43397	1017.221234	-479.798743	874.792999	966.0348750000001	-528.84887	
65	0.77	756.12514	960.74892	-437.935291	743.084553	984.603163	-166.194262	582.049008	991.580689	-372.296946	573.781104	994.47027	-270.286541	688.968538	801.4833	-128.710867	788.171398	710.332484	-139.74157	759.3429	583.9962860000001	-181.686562	686.175056	761.178295	-474.032607	754.836401	636.495899	-461.56169	713.415065	524.179948	-442.33944	828.99367	362.2031	-259.427768	789.28729	312.097142	-198.125575	754.780531	205.65769	-259.942824	610.698128	401.254695	-374.887769	534.224693	436.862712	-437.619867	456.461697	425.292013	-373.122572	599.169434	104.960495	-269.428142	823.243394	67.564894	-278.322713	768.381994	57.075595	-191.720457	367.644705	551.621786	-362.791777	248.836816	355.489891	-357.331499	249.324834	415.795868	-442.7313	786.4920550000001	1428.130526	-468.454817	753.732474	1451.903175	-132.228075	815.7312429999999	1378.826404	-263.395725	705.079671	1474.005222	-304.670888	686.909628	1387.628524	-50.847236	609.475891	1327.508435	-78.09361699999999	622.89442	1282.350383	-18.989305	559.626534	1196.946434	14.803891	555.77544	1174.515705	-64.474158	742.675871	1347.374206	-553.088538	672.604964	1276.878535	-540.504911	689.711619	1219.835016	-599.828616	684.4957439999999	1137.62927	-631.472933	637.650248	1128.632138	-567.29826	646.324909	1133.856505	37.61948	773.094287	1044.944979	24.418176	721.177474	995.923223	38.102542	773.284986	1079.891413	-596.846374	869.324081	996.238577	-491.110669	850.684932	949.330841	-542.44069	
66	0.78	752.748154	958.5276689999999	-440.060384	743.690784	984.730178	-166.580044	580.3986159999999	992.439071	-372.325084	574.36646	995.1377629999999	-270.353275	683.6237170000001	800.993665	-130.165588	778.634604	706.197623	-142.670788	739.872404	580.1243930000001	-182.494131	690.145077	759.6758160000001	-472.097799	773.084241	639.966967	-461.241793	742.127031	527.094659	-443.91293	794.543632	353.315561	-260.998411	752.644152	304.684169	-199.834331	709.625629	200.691237	-259.250383	650.705636	400.971288	-372.499188	573.9891249999999	428.466487	-434.922035	493.916911	417.402935	-373.30319	548.6270060000001	106.518658	-268.248183	772.531325	67.278913	-276.351167	718.01003	57.441011	-189.112232	396.034173	540.051704	-365.37111	292.975998	335.598006	-354.939345	289.803176	392.748852	-441.920211	781.557009	1427.394876	-470.12613	755.780244	1450.701987	-132.878414	815.5323979999999	1378.001921	-265.221367	704.028577	1473.128316	-304.246393	692.213556	1385.44773	-49.806531	616.830021	1321.719535	-74.54357899999999	633.76786	1278.376549	-14.431169	575.9452219999999	1190.007031	22.881259	565.128752	1166.830265	-54.573326	734.624451	1347.346738	-552.781791	664.411025	1277.513584	-536.8318829999999	677.0310940000001	1221.157788	-597.159679	668.407718	1139.409371	-629.521386	624.960078	1130.847665	-564.084468	665.251518	1129.917922	41.682215	792.6365950000001	1044.127143	24.69241	742.802713	993.947466	40.962071	755.307341	1076.059477	-599.981078	849.357987	979.9682309999999	-502.131889	825.402592	937.839551	-555.662438	
67	0.79	749.626548	960.191771	-442.778352	745.188584	984.66119	-168.704577	579.2199859999999	993.215521	-371.057847	575.991617	995.455656	-271.49465	676.817132	800.499855	-131.307935	767.849255	701.944229	-145.43032	718.497337	575.962067	-182.465084	692.950731	759.766603	-469.859449	792.385902	647.384816	-461.615316	771.44948	533.198293	-445.545386	757.243637	343.593921	-262.223496	713.268103	297.011299	-200.728063	663.516088	196.394393	-258.53959	690.553257	402.114485	-370.04245	613.715593	422.034345	-432.15229	532.20445	408.510854	-373.282554	498.513949	108.721554	-266.794781	721.569292	66.76899400000001	-275.182144	667.499925	57.608064	-186.622747	421.645203	525.0471240000001	-368.429088	340.279439	311.074384	-352.009198	332.104133	364.807443	-440.548684	776.8684510000001	1427.831491	-471.632715	758.420991	1451.13144	-133.944943	815.416101	1378.314312	-267.396602	703.021161	1473.338991	-303.898199	697.444171	1385.547781	-49.343499	623.617198	1318.952601	-72.29043	643.51657	1277.093551	-11.260454	591.208172	1186.643661	29.338772	574.057485	1162.579872	-45.954445	726.2059829999999	1349.088851	-552.876495	656.098659	1279.844364	-533.253549	662.937021	1225.092231	-594.566241	651.197865	1144.112923	-628.472608	611.83958	1135.625081	-561.053396	682.873472	1129.573437	44.801945	811.575682	1047.160171	24.012902	764.21473	995.73866	42.567525	736.53255	1076.040029	-603.395546	827.892795	969.756611	-512.485288	799.729652	932.276111	-567.783171	
